<svg xmlns="http://www.w3.org/2000/svg" width="240" height="90" viewBox="0 0 334.066 71.892" style="max-width: 60vw;">
    <defs>
        <style>
            .aa {
            fill: #5e9728 !important;
            }

            .aa,
            .bb {
            fill-rule: evenodd;
            }

            .bb {
            fill: #0067b5;
            }

            .cc {
            fill: #1a1818;
            }
        </style>
    </defs>
    <g transform="translate(-52.28 -364.375)">
        <g transform="translate(52.28 364.375)">
            <path class="aa" d="M130.6,406.515V449.4H73.272c4.372-8.708,20.394-26.851,19.435-22.226l-1.459,7.019c5.321-5.673,22.894-23.9,21.542-15.425l.08-.367A60.375,60.375,0,0,1,130.6,406.515Z" transform="translate(-58.942 -377.749)"></path>
            <path class="bb" d="M52.28,364.375h71.659v13.173c-6.262,1.515-16.1,8.812-21.377,12.37-1.076-6.521-18.482,7.757-22.347,10.719-.728-.584-1.31-1.722-2.189-1.754-8.647-.321-20.676,11.153-25.746,15.915Z" transform="translate(-52.28 -364.375)"></path>
        </g>
        <g transform="translate(131.809 364.625)">
            <path class="cc" d="M170.7,381.136V364.741h11.24v2.773H174.01v3.88h6.844v2.773H174.01v6.968Z" transform="translate(-169.391 -364.741)"></path>
            <path class="cc" d="M190.063,377.005a6.423,6.423,0,0,1,.772-3.031,5.292,5.292,0,0,1,2.186-2.236,6.483,6.483,0,0,1,3.159-.772,5.93,5.93,0,0,1,4.417,1.75,6.047,6.047,0,0,1,1.722,4.423,6.122,6.122,0,0,1-1.739,4.468,5.877,5.877,0,0,1-4.378,1.773,6.9,6.9,0,0,1-3.115-.738,5.067,5.067,0,0,1-2.253-2.164A7.207,7.207,0,0,1,190.063,377.005Zm3.221.168a3.933,3.933,0,0,0,.838,2.706,2.742,2.742,0,0,0,4.133,0,3.991,3.991,0,0,0,.833-2.728,3.918,3.918,0,0,0-.833-2.684,2.742,2.742,0,0,0-4.133,0A3.935,3.935,0,0,0,193.284,377.173Z" transform="translate(-175.537 -366.717)"></path>
            <path class="cc" d="M222.416,383.111h-3.143V377.05a9.357,9.357,0,0,0-.2-2.488,1.75,1.75,0,0,0-.654-.878,1.875,1.875,0,0,0-1.09-.313,2.518,2.518,0,0,0-1.465.448,2.255,2.255,0,0,0-.889,1.185,10.248,10.248,0,0,0-.24,2.729v5.379H211.59V371.234h2.919v1.745a4.867,4.867,0,0,1,5.815-1.638,3.19,3.19,0,0,1,1.3.956,3.475,3.475,0,0,1,.615,1.32,9.827,9.827,0,0,1,.173,2.113Z" transform="translate(-182.368 -366.717)"></path>
            <path class="cc" d="M242.682,381.136h-2.919v-1.745a4.718,4.718,0,0,1-1.716,1.516,4.408,4.408,0,0,1-2,.5,4.521,4.521,0,0,1-3.505-1.65,6.706,6.706,0,0,1-1.46-4.6,6.632,6.632,0,0,1,1.421-4.591,4.632,4.632,0,0,1,3.59-1.572,4.446,4.446,0,0,1,3.445,1.655v-5.9h3.142Zm-8.387-6.2a5.432,5.432,0,0,0,.526,2.751,2.372,2.372,0,0,0,2.124,1.23,2.315,2.315,0,0,0,1.845-.922,4.259,4.259,0,0,0,.76-2.757,4.661,4.661,0,0,0-.738-2.947,2.337,2.337,0,0,0-1.89-.9,2.362,2.362,0,0,0-1.873.889A4.018,4.018,0,0,0,234.3,374.94Z" transform="translate(-188.556 -364.741)"></path>
            <path class="cc" d="M260.083,383.236v-2.449l4.451-5.111q1.1-1.252,1.621-1.778-.548.034-1.442.045l-4.193.022v-2.606h9.819v2.226l-4.54,5.234-1.6,1.733q1.309-.079,1.621-.078h4.865v2.763Z" transform="translate(-197.758 -366.841)"></path>
            <path class="cc" d="M280.674,374.858l-2.851-.514a4.438,4.438,0,0,1,1.655-2.55,6.06,6.06,0,0,1,3.49-.828,7.52,7.52,0,0,1,3.131.5,3.119,3.119,0,0,1,1.448,1.263,6.478,6.478,0,0,1,.42,2.813l-.033,3.668a12.7,12.7,0,0,0,.151,2.309,6.726,6.726,0,0,0,.565,1.594h-3.109q-.123-.313-.3-.928-.078-.28-.111-.369a5.68,5.68,0,0,1-1.722,1.175,4.938,4.938,0,0,1-1.957.391,4.046,4.046,0,0,1-2.891-1,3.309,3.309,0,0,1-1.057-2.516,3.377,3.377,0,0,1,.481-1.8,3.142,3.142,0,0,1,1.348-1.208,10.552,10.552,0,0,1,2.5-.732,17.152,17.152,0,0,0,3.053-.771v-.313a1.626,1.626,0,0,0-.447-1.292,2.679,2.679,0,0,0-1.689-.386,2.251,2.251,0,0,0-1.309.33A2.3,2.3,0,0,0,280.674,374.858Zm4.205,2.55a19.7,19.7,0,0,1-1.912.481,5.76,5.76,0,0,0-1.711.548,1.31,1.31,0,0,0-.615,1.107,1.541,1.541,0,0,0,.492,1.141,1.72,1.72,0,0,0,1.253.481,2.72,2.72,0,0,0,1.621-.559,1.968,1.968,0,0,0,.749-1.04,6.211,6.211,0,0,0,.123-1.532Z" transform="translate(-203.285 -366.717)"></path>
            <path class="cc" d="M168.783,423.5v-2.449l4.451-5.111q1.1-1.252,1.621-1.778-.548.034-1.442.045l-4.194.023v-2.606h9.82v2.225l-4.541,5.234-1.6,1.733q1.309-.078,1.622-.078h4.864V423.5Z" transform="translate(-168.783 -379.619)"></path>
            <path class="cc" d="M197.974,421.4h-2.919v-1.744a4.715,4.715,0,0,1-1.716,1.515,4.406,4.406,0,0,1-2,.5,4.523,4.523,0,0,1-3.505-1.65,6.705,6.705,0,0,1-1.46-4.6,6.633,6.633,0,0,1,1.421-4.591,4.632,4.632,0,0,1,3.59-1.571,4.448,4.448,0,0,1,3.445,1.655V405h3.142Zm-8.387-6.2a5.435,5.435,0,0,0,.526,2.752,2.373,2.373,0,0,0,2.124,1.229,2.313,2.313,0,0,0,1.845-.922,4.259,4.259,0,0,0,.76-2.757,4.662,4.662,0,0,0-.738-2.947,2.337,2.337,0,0,0-1.89-.9,2.362,2.362,0,0,0-1.873.889A4.018,4.018,0,0,0,189.587,415.2Z" transform="translate(-174.367 -377.519)"></path>
            <path class="cc" d="M210.85,423.373h-3.143V411.5h2.919v1.688a5.079,5.079,0,0,1,1.348-1.576,2.48,2.48,0,0,1,1.359-.381,3.988,3.988,0,0,1,2.069.593l-.973,2.739a2.762,2.762,0,0,0-1.477-.514,1.748,1.748,0,0,0-1.118.363,2.486,2.486,0,0,0-.722,1.314,18.658,18.658,0,0,0-.263,3.981Z" transform="translate(-181.136 -379.494)"></path>
            <path class="cc" d="M222.925,415.12l-2.852-.515a4.442,4.442,0,0,1,1.655-2.55,6.056,6.056,0,0,1,3.489-.828,7.537,7.537,0,0,1,3.132.5,3.124,3.124,0,0,1,1.448,1.264,6.486,6.486,0,0,1,.419,2.812l-.033,3.669a12.771,12.771,0,0,0,.151,2.309,6.8,6.8,0,0,0,.565,1.593H227.79q-.123-.312-.3-.928c-.053-.186-.089-.309-.112-.369a5.66,5.66,0,0,1-1.722,1.175,4.924,4.924,0,0,1-1.957.391,4.046,4.046,0,0,1-2.891-1,3.308,3.308,0,0,1-1.057-2.516,3.375,3.375,0,0,1,.481-1.8,3.14,3.14,0,0,1,1.348-1.208,10.556,10.556,0,0,1,2.5-.732,17.078,17.078,0,0,0,3.053-.771v-.313a1.626,1.626,0,0,0-.447-1.292,2.678,2.678,0,0,0-1.688-.386,2.25,2.25,0,0,0-1.309.33A2.288,2.288,0,0,0,222.925,415.12Zm4.2,2.55a19.512,19.512,0,0,1-1.912.481,5.774,5.774,0,0,0-1.711.548,1.311,1.311,0,0,0-.616,1.107,1.541,1.541,0,0,0,.493,1.141,1.715,1.715,0,0,0,1.252.481,2.724,2.724,0,0,0,1.622-.56,1.963,1.963,0,0,0,.749-1.04,6.2,6.2,0,0,0,.123-1.532Z" transform="translate(-184.958 -379.494)"></path>
            <path class="cc" d="M242.18,423.5l-4.787-11.876h3.3l2.236,6.061.649,2.025q.257-.772.324-1.018.157-.5.335-1.007l2.259-6.061h3.232L245.009,423.5Z" transform="translate(-190.557 -379.619)"></path>
            <path class="cc" d="M256.659,419.986l3.154-.481a2.309,2.309,0,0,0,.816,1.392,2.758,2.758,0,0,0,1.722.476,3.111,3.111,0,0,0,1.834-.448,1,1,0,0,0,.413-.839.822.822,0,0,0-.223-.592,2.514,2.514,0,0,0-1.051-.415,16.935,16.935,0,0,1-4.82-1.531,3.061,3.061,0,0,1-1.409-2.673,3.293,3.293,0,0,1,1.218-2.594,5.693,5.693,0,0,1,3.78-1.052,6.591,6.591,0,0,1,3.623.795,4.06,4.06,0,0,1,1.633,2.348l-2.964.548a1.831,1.831,0,0,0-.721-1.062,2.635,2.635,0,0,0-1.515-.369,3.42,3.42,0,0,0-1.778.346.745.745,0,0,0-.358.638.7.7,0,0,0,.313.571,11.79,11.79,0,0,0,2.936.883,8.741,8.741,0,0,1,3.506,1.4,2.905,2.905,0,0,1,.984,2.337,3.588,3.588,0,0,1-1.365,2.807,6.039,6.039,0,0,1-4.037,1.174,6.626,6.626,0,0,1-3.842-.984A4.535,4.535,0,0,1,256.659,419.986Z" transform="translate(-196.672 -379.494)"></path>
            <path class="cc" d="M281.784,409.672v2.5h-2.148v4.787a11.921,11.921,0,0,0,.061,1.694.691.691,0,0,0,.28.4.885.885,0,0,0,.531.156,4.058,4.058,0,0,0,1.264-.3l.268,2.438a6.24,6.24,0,0,1-2.482.47,3.957,3.957,0,0,1-1.533-.285,2.24,2.24,0,0,1-1-.739,2.912,2.912,0,0,1-.442-1.225,15.238,15.238,0,0,1-.1-2.214v-5.178H275.04v-2.5h1.442v-2.36l3.154-1.834v4.194Z" transform="translate(-202.505 -377.67)"></path>
            <path class="cc" d="M290.672,423.5l-4.787-11.876h3.3l2.237,6.061.649,2.025q.257-.772.324-1.018.157-.5.336-1.007l2.259-6.061h3.232L293.5,423.5Z" transform="translate(-205.947 -379.619)"></path>
            <path class="cc" d="M313.225,419.593l3.131.526a5.13,5.13,0,0,1-1.906,2.623,5.6,5.6,0,0,1-3.26.9,5.312,5.312,0,0,1-4.585-2.025,6.8,6.8,0,0,1-1.174-4.092,6.561,6.561,0,0,1,1.543-4.624,5.084,5.084,0,0,1,3.9-1.673,5.272,5.272,0,0,1,4.183,1.75q1.533,1.751,1.466,5.363h-7.874a3.175,3.175,0,0,0,.761,2.175,2.374,2.374,0,0,0,1.811.778,1.923,1.923,0,0,0,1.241-.4A2.479,2.479,0,0,0,313.225,419.593Zm.179-3.176a3.029,3.029,0,0,0-.7-2.075,2.267,2.267,0,0,0-3.333.039,2.9,2.9,0,0,0-.66,2.036Z" transform="translate(-212.15 -379.494)"></path>
            <path class="cc" d="M336.227,423.373h-3.144v-6.061a9.359,9.359,0,0,0-.2-2.488,1.745,1.745,0,0,0-.655-.879,1.872,1.872,0,0,0-1.09-.313,2.519,2.519,0,0,0-1.465.448,2.258,2.258,0,0,0-.889,1.186,10.277,10.277,0,0,0-.24,2.729v5.379H325.4V411.5h2.92v1.744a4.866,4.866,0,0,1,5.815-1.638,3.19,3.19,0,0,1,1.3.956,3.463,3.463,0,0,1,.615,1.32,9.78,9.78,0,0,1,.174,2.113Z" transform="translate(-218.488 -379.494)"></path>
            <path class="cc" d="M344.864,417.267a6.423,6.423,0,0,1,.771-3.031A5.3,5.3,0,0,1,347.822,412a6.486,6.486,0,0,1,3.159-.772,5.93,5.93,0,0,1,4.417,1.75,6.048,6.048,0,0,1,1.722,4.423,6.116,6.116,0,0,1-1.739,4.468A5.875,5.875,0,0,1,351,423.642a6.9,6.9,0,0,1-3.115-.738,5.063,5.063,0,0,1-2.253-2.164A7.205,7.205,0,0,1,344.864,417.267Zm3.221.168a3.933,3.933,0,0,0,.838,2.706,2.741,2.741,0,0,0,4.133,0,3.987,3.987,0,0,0,.833-2.728,3.915,3.915,0,0,0-.833-2.684,2.743,2.743,0,0,0-4.133,0A3.936,3.936,0,0,0,348.085,417.435Z" transform="translate(-224.665 -379.494)"></path>
            <path class="cc" d="M374.681,417.267a6.43,6.43,0,0,1,.771-3.031A5.3,5.3,0,0,1,377.639,412a6.483,6.483,0,0,1,3.159-.772,5.929,5.929,0,0,1,4.417,1.75,6.046,6.046,0,0,1,1.723,4.423,6.119,6.119,0,0,1-1.739,4.468,5.874,5.874,0,0,1-4.378,1.773,6.9,6.9,0,0,1-3.116-.738,5.064,5.064,0,0,1-2.253-2.164A7.214,7.214,0,0,1,374.681,417.267Zm3.22.168a3.933,3.933,0,0,0,.839,2.706,2.741,2.741,0,0,0,4.133,0,3.991,3.991,0,0,0,.833-2.728,3.918,3.918,0,0,0-.833-2.684,2.743,2.743,0,0,0-4.133,0A3.936,3.936,0,0,0,377.9,417.435Z" transform="translate(-234.128 -379.494)"></path>
            <path class="cc" d="M394.618,419.986l3.154-.481a2.307,2.307,0,0,0,.817,1.392,2.757,2.757,0,0,0,1.722.476,3.11,3.11,0,0,0,1.834-.448,1,1,0,0,0,.414-.839.822.822,0,0,0-.223-.592,2.514,2.514,0,0,0-1.051-.415,16.942,16.942,0,0,1-4.821-1.531,3.061,3.061,0,0,1-1.409-2.673,3.292,3.292,0,0,1,1.219-2.594,5.69,5.69,0,0,1,3.78-1.052,6.6,6.6,0,0,1,3.624.795,4.059,4.059,0,0,1,1.632,2.348l-2.964.548a1.828,1.828,0,0,0-.721-1.062,2.635,2.635,0,0,0-1.515-.369,3.417,3.417,0,0,0-1.778.346.745.745,0,0,0-.358.638.694.694,0,0,0,.313.571,11.78,11.78,0,0,0,2.935.883,8.749,8.749,0,0,1,3.507,1.4,2.9,2.9,0,0,1,.984,2.337,3.586,3.586,0,0,1-1.365,2.807,6.038,6.038,0,0,1-4.037,1.174,6.623,6.623,0,0,1-3.841-.984A4.535,4.535,0,0,1,394.618,419.986Z" transform="translate(-240.455 -379.494)"></path>
            <path class="cc" d="M414.9,407.911V405h3.143v2.908Zm0,13.487V409.521h3.143V421.4Z" transform="translate(-246.892 -377.519)"></path>
            <path class="cc" d="M423.6,424.156l3.59.436a1.223,1.223,0,0,0,.414.861,2.359,2.359,0,0,0,1.409.336,3.654,3.654,0,0,0,1.845-.369,1.525,1.525,0,0,0,.627-.794,4.8,4.8,0,0,0,.145-1.442V421.45a4.252,4.252,0,0,1-3.557,1.924,4.38,4.38,0,0,1-3.791-2.024,6.883,6.883,0,0,1-1.1-3.981,6.55,6.55,0,0,1,1.438-4.563,4.636,4.636,0,0,1,3.573-1.578,4.35,4.35,0,0,1,3.634,1.935V411.5h2.941v10.657a10.636,10.636,0,0,1-.347,3.143,3.889,3.889,0,0,1-.973,1.632,4.29,4.29,0,0,1-1.672.929,8.812,8.812,0,0,1-2.645.335,6.839,6.839,0,0,1-4.283-1.035,3.244,3.244,0,0,1-1.264-2.622C423.592,424.431,423.6,424.305,423.6,424.156Zm2.807-6.968a4.292,4.292,0,0,0,.732,2.769,2.266,2.266,0,0,0,1.807.877,2.5,2.5,0,0,0,1.946-.9,3.921,3.921,0,0,0,.795-2.667,4.155,4.155,0,0,0-.761-2.739,2.414,2.414,0,0,0-1.923-.9,2.323,2.323,0,0,0-1.863.879A4.122,4.122,0,0,0,426.41,417.189Z" transform="translate(-249.523 -379.494)"></path>
            <path class="cc" d="M452.5,423.5V421.72a4.565,4.565,0,0,1-1.705,1.5,4.782,4.782,0,0,1-2.232.548,4.364,4.364,0,0,1-2.147-.526,3.1,3.1,0,0,1-1.375-1.477,6.578,6.578,0,0,1-.425-2.627v-7.515h3.143v5.457a15.152,15.152,0,0,0,.173,3.07,1.674,1.674,0,0,0,.631.895,1.945,1.945,0,0,0,1.163.33,2.474,2.474,0,0,0,1.443-.442,2.243,2.243,0,0,0,.872-1.1,12.728,12.728,0,0,0,.235-3.2v-5.01h3.142V423.5Z" transform="translate(-256.324 -379.619)"></path>
            <path class="cc" d="M468.158,423.373h-3.142V411.5h2.918v1.688a5.063,5.063,0,0,1,1.348-1.576,2.474,2.474,0,0,1,1.359-.381,3.989,3.989,0,0,1,2.069.593l-.973,2.739a2.758,2.758,0,0,0-1.476-.514,1.75,1.75,0,0,0-1.119.363,2.486,2.486,0,0,0-.721,1.314,18.661,18.661,0,0,0-.263,3.981Z" transform="translate(-262.797 -379.494)"></path>
            <path class="cc" d="M480.233,415.12l-2.852-.515a4.444,4.444,0,0,1,1.655-2.55,6.056,6.056,0,0,1,3.489-.828,7.529,7.529,0,0,1,3.131.5,3.126,3.126,0,0,1,1.449,1.264,6.483,6.483,0,0,1,.42,2.812l-.034,3.669a12.766,12.766,0,0,0,.151,2.309,6.74,6.74,0,0,0,.565,1.593H485.1c-.082-.208-.183-.517-.3-.928-.053-.186-.09-.309-.113-.369a5.653,5.653,0,0,1-1.722,1.175,4.923,4.923,0,0,1-1.957.391,4.046,4.046,0,0,1-2.892-1,3.308,3.308,0,0,1-1.056-2.516,3.375,3.375,0,0,1,.481-1.8,3.146,3.146,0,0,1,1.347-1.208,10.573,10.573,0,0,1,2.5-.732,17.092,17.092,0,0,0,3.053-.771v-.313a1.629,1.629,0,0,0-.447-1.292,2.681,2.681,0,0,0-1.689-.386,2.25,2.25,0,0,0-1.309.33A2.293,2.293,0,0,0,480.233,415.12Zm4.205,2.55a19.54,19.54,0,0,1-1.913.481,5.8,5.8,0,0,0-1.711.548,1.311,1.311,0,0,0-.614,1.107,1.54,1.54,0,0,0,.492,1.141,1.716,1.716,0,0,0,1.253.481,2.724,2.724,0,0,0,1.621-.56,1.96,1.96,0,0,0,.749-1.04,6.156,6.156,0,0,0,.124-1.532Z" transform="translate(-266.619 -379.494)"></path>
            <path class="cc" d="M507.722,423.373h-3.144v-6.061a9.359,9.359,0,0,0-.2-2.488,1.746,1.746,0,0,0-.655-.879,1.872,1.872,0,0,0-1.09-.313,2.519,2.519,0,0,0-1.465.448,2.253,2.253,0,0,0-.889,1.186,10.24,10.24,0,0,0-.24,2.729v5.379H496.9V411.5h2.92v1.744a4.866,4.866,0,0,1,5.815-1.638,3.2,3.2,0,0,1,1.3.956,3.473,3.473,0,0,1,.614,1.32,9.777,9.777,0,0,1,.174,2.113Z" transform="translate(-272.915 -379.494)"></path>
            <path class="cc" d="M519.246,409.521v11.507a11.941,11.941,0,0,1-.3,3.2,2.6,2.6,0,0,1-1.141,1.46,4.015,4.015,0,0,1-2.153.526,6.649,6.649,0,0,1-1.012-.084,11.108,11.108,0,0,1-1.168-.251l.547-2.684q.224.044.42.072a2.623,2.623,0,0,0,.363.028,1.387,1.387,0,0,0,.789-.207.992.992,0,0,0,.408-.5,8.179,8.179,0,0,0,.1-1.745V409.521Zm-3.143-1.61V405h3.143v2.908Z" transform="translate(-278.177 -377.519)"></path>
            <path class="cc" d="M533.2,419.593l3.131.526a5.132,5.132,0,0,1-1.907,2.623,5.6,5.6,0,0,1-3.26.9,5.311,5.311,0,0,1-4.585-2.025,6.8,6.8,0,0,1-1.175-4.092,6.558,6.558,0,0,1,1.543-4.624,5.084,5.084,0,0,1,3.9-1.673,5.272,5.272,0,0,1,4.182,1.75q1.533,1.751,1.465,5.363h-7.873a3.171,3.171,0,0,0,.761,2.175,2.375,2.375,0,0,0,1.812.778,1.924,1.924,0,0,0,1.241-.4A2.482,2.482,0,0,0,533.2,419.593Zm.18-3.176a3.029,3.029,0,0,0-.7-2.075,2.267,2.267,0,0,0-3.333.039,2.9,2.9,0,0,0-.66,2.036Z" transform="translate(-281.961 -379.494)"></path>
            <path class="cc" d="M180.887,455.5l3.209,1.018a7.193,7.193,0,0,1-2.455,3.987,7.727,7.727,0,0,1-9.724-.928,8.54,8.54,0,0,1-2.1-6.1,8.96,8.96,0,0,1,2.113-6.357,7.244,7.244,0,0,1,5.558-2.266,6.821,6.821,0,0,1,4.887,1.779,6.471,6.471,0,0,1,1.678,3.019l-3.277.783a3.388,3.388,0,0,0-3.455-2.752,3.731,3.731,0,0,0-2.959,1.309,6.416,6.416,0,0,0-1.135,4.238q0,3.108,1.119,4.428a3.631,3.631,0,0,0,2.907,1.32,3.314,3.314,0,0,0,2.27-.839A4.876,4.876,0,0,0,180.887,455.5Z" transform="translate(-169.111 -390.167)"></path>
            <path class="cc" d="M197.809,463.635h-3.142V451.759h2.919v1.688a5.079,5.079,0,0,1,1.348-1.576,2.476,2.476,0,0,1,1.359-.381,3.988,3.988,0,0,1,2.068.593l-.973,2.74a2.759,2.759,0,0,0-1.476-.515,1.748,1.748,0,0,0-1.119.363,2.487,2.487,0,0,0-.721,1.314,18.645,18.645,0,0,0-.263,3.982Z" transform="translate(-176.998 -392.272)"></path>
            <path class="cc" d="M218.714,463.635h-3.143v-6.062a9.347,9.347,0,0,0-.2-2.487,1.746,1.746,0,0,0-.654-.878,1.87,1.87,0,0,0-1.091-.313,2.52,2.52,0,0,0-1.465.447,2.257,2.257,0,0,0-.889,1.185,10.252,10.252,0,0,0-.24,2.729v5.379h-3.143V451.759h2.919V453.5a4.867,4.867,0,0,1,5.815-1.638,3.2,3.2,0,0,1,1.3.956,3.475,3.475,0,0,1,.615,1.32,9.833,9.833,0,0,1,.173,2.114Z" transform="translate(-181.194 -392.272)"></path>
            <path class="cc" d="M234.867,459.856l3.131.526A5.134,5.134,0,0,1,236.092,463a5.6,5.6,0,0,1-3.26.9,5.314,5.314,0,0,1-4.585-2.025,6.8,6.8,0,0,1-1.174-4.093,6.56,6.56,0,0,1,1.543-4.625,5.085,5.085,0,0,1,3.9-1.672,5.274,5.274,0,0,1,4.182,1.751q1.532,1.75,1.465,5.362h-7.874a3.181,3.181,0,0,0,.76,2.176,2.381,2.381,0,0,0,1.812.777,1.926,1.926,0,0,0,1.241-.4A2.486,2.486,0,0,0,234.867,459.856Zm.179-3.176a3.029,3.029,0,0,0-.7-2.074,2.161,2.161,0,0,0-1.633-.71,2.183,2.183,0,0,0-1.7.749,2.9,2.9,0,0,0-.66,2.036Z" transform="translate(-187.282 -392.272)"></path>
            <path class="cc" d="M263.791,455.5V452.74h7.136v6.531a8.985,8.985,0,0,1-3.014,1.772,10.973,10.973,0,0,1-4,.766,8.975,8.975,0,0,1-4.485-1.079,6.861,6.861,0,0,1-2.874-3.087,9.977,9.977,0,0,1-.962-4.367,9.447,9.447,0,0,1,1.074-4.552,7.233,7.233,0,0,1,3.142-3.052,8.475,8.475,0,0,1,3.926-.817,7.831,7.831,0,0,1,4.77,1.281,5.786,5.786,0,0,1,2.209,3.539l-3.288.616a3.479,3.479,0,0,0-1.3-1.907,3.942,3.942,0,0,0-2.388-.7,4.484,4.484,0,0,0-3.45,1.376,5.791,5.791,0,0,0-1.281,4.081,6.419,6.419,0,0,0,1.3,4.378,4.333,4.333,0,0,0,3.4,1.459,5.7,5.7,0,0,0,2.085-.408,7.124,7.124,0,0,0,1.795-.99V455.5Z" transform="translate(-196.334 -390.167)"></path>
            <path class="cc" d="M281.43,457.53a6.434,6.434,0,0,1,.771-3.032,5.3,5.3,0,0,1,2.187-2.236,6.484,6.484,0,0,1,3.159-.772,5.931,5.931,0,0,1,4.417,1.751,6.046,6.046,0,0,1,1.722,4.422,6.123,6.123,0,0,1-1.739,4.469,5.879,5.879,0,0,1-4.378,1.773,6.9,6.9,0,0,1-3.115-.739A5.068,5.068,0,0,1,282.2,461,7.215,7.215,0,0,1,281.43,457.53Zm3.221.167a3.939,3.939,0,0,0,.838,2.707,2.742,2.742,0,0,0,4.133,0,3.988,3.988,0,0,0,.833-2.728,3.914,3.914,0,0,0-.833-2.684,2.741,2.741,0,0,0-4.133,0A3.936,3.936,0,0,0,284.651,457.7Z" transform="translate(-204.533 -392.272)"></path>
            <path class="cc" d="M305.935,463.635h-3.142V451.759h2.918v1.688a5.07,5.07,0,0,1,1.348-1.576,2.474,2.474,0,0,1,1.358-.381,3.988,3.988,0,0,1,2.069.593l-.973,2.74a2.761,2.761,0,0,0-1.476-.515,1.747,1.747,0,0,0-1.119.363,2.487,2.487,0,0,0-.722,1.314,18.656,18.656,0,0,0-.263,3.982Z" transform="translate(-211.313 -392.272)"></path>
            <path class="cc" d="M322.5,459.856l3.131.526A5.134,5.134,0,0,1,323.722,463a5.6,5.6,0,0,1-3.26.9,5.313,5.313,0,0,1-4.585-2.025,6.8,6.8,0,0,1-1.175-4.093,6.56,6.56,0,0,1,1.543-4.625,5.086,5.086,0,0,1,3.9-1.672,5.274,5.274,0,0,1,4.182,1.751q1.533,1.75,1.465,5.362h-7.873a3.174,3.174,0,0,0,.76,2.176,2.378,2.378,0,0,0,1.811.777,1.925,1.925,0,0,0,1.242-.4A2.481,2.481,0,0,0,322.5,459.856Zm.18-3.176a3.029,3.029,0,0,0-.7-2.074,2.268,2.268,0,0,0-3.333.039,2.891,2.891,0,0,0-.66,2.036Z" transform="translate(-215.093 -392.272)"></path>
        </g>
    </g>
</svg>